<svg width="382" height="382" viewBox="0 0 382 382" fill="none" xmlns="http://www.w3.org/2000/svg">
<rect width="382" height="382" rx="94" fill="#D9D9D9"/>
<path d="M200 110.4C200 91.3582 200 81.8373 203.706 74.5643C206.965 68.1668 212.167 62.9655 218.564 59.7058C225.837 56 235.358 56 254.4 56H286C294.401 56 298.601 56 301.81 57.6349C304.632 59.073 306.927 61.3677 308.365 64.1901C310 67.3988 310 71.5992 310 80V111.6C310 130.642 310 140.163 306.294 147.436C303.035 153.833 297.833 159.035 291.436 162.294C284.163 166 274.642 166 255.6 166H224C215.599 166 211.399 166 208.19 164.365C205.368 162.927 203.073 160.632 201.635 157.81C200 154.601 200 150.401 200 142V110.4Z" fill="black"/>
<path d="M100.96 285.023C95.7102 285.023 91.1761 283.932 87.358 281.75C83.5625 279.545 80.642 276.432 78.5966 272.409C76.5511 268.364 75.5284 263.602 75.5284 258.125C75.5284 252.739 76.5511 248.011 78.5966 243.943C80.6648 239.852 83.5511 236.67 87.2557 234.398C90.9602 232.102 95.3125 230.955 100.312 230.955C103.54 230.955 106.585 231.477 109.449 232.523C112.335 233.545 114.881 235.136 117.085 237.295C119.313 239.455 121.063 242.205 122.335 245.545C123.608 248.864 124.244 252.818 124.244 257.409V261.193H81.3239V252.875H112.415C112.392 250.511 111.881 248.409 110.881 246.568C109.881 244.705 108.483 243.239 106.688 242.17C104.915 241.102 102.847 240.568 100.483 240.568C97.9602 240.568 95.7443 241.182 93.8352 242.409C91.9261 243.614 90.4375 245.205 89.3693 247.182C88.3239 249.136 87.7898 251.284 87.767 253.625V260.886C87.767 263.932 88.3239 266.545 89.4375 268.727C90.5511 270.886 92.108 272.545 94.108 273.705C96.108 274.841 98.4489 275.409 101.131 275.409C102.926 275.409 104.551 275.159 106.006 274.659C107.46 274.136 108.722 273.375 109.79 272.375C110.858 271.375 111.665 270.136 112.21 268.659L123.733 269.955C123.006 273 121.619 275.659 119.574 277.932C117.551 280.182 114.96 281.932 111.801 283.182C108.642 284.409 105.028 285.023 100.96 285.023ZM169.628 303.636V275.75H169.116C168.48 277.023 167.56 278.375 166.355 279.807C165.151 281.216 163.56 282.42 161.582 283.42C159.605 284.42 157.116 284.92 154.116 284.92C150.003 284.92 146.321 283.864 143.071 281.75C139.821 279.636 137.253 276.568 135.366 272.545C133.48 268.523 132.537 263.636 132.537 257.886C132.537 252.068 133.491 247.159 135.401 243.159C137.332 239.136 139.935 236.102 143.207 234.057C146.48 231.989 150.128 230.955 154.151 230.955C157.219 230.955 159.741 231.477 161.719 232.523C163.696 233.545 165.264 234.784 166.423 236.239C167.582 237.67 168.48 239.023 169.116 240.295H169.866V231.636H182.003V303.636H169.628ZM157.56 274.795C160.173 274.795 162.401 274.091 164.241 272.682C166.082 271.25 167.48 269.261 168.435 266.716C169.389 264.17 169.866 261.205 169.866 257.818C169.866 254.432 169.389 251.489 168.435 248.989C167.503 246.489 166.116 244.545 164.276 243.159C162.457 241.773 160.219 241.08 157.56 241.08C154.81 241.08 152.514 241.795 150.673 243.227C148.832 244.659 147.446 246.636 146.514 249.159C145.582 251.682 145.116 254.568 145.116 257.818C145.116 261.091 145.582 264.011 146.514 266.58C147.469 269.125 148.866 271.136 150.707 272.614C152.571 274.068 154.855 274.795 157.56 274.795ZM233.173 233.375C232.855 230.398 231.514 228.08 229.151 226.42C226.81 224.761 223.764 223.932 220.014 223.932C217.378 223.932 215.116 224.33 213.23 225.125C211.344 225.92 209.901 227 208.901 228.364C207.901 229.727 207.389 231.284 207.366 233.034C207.366 234.489 207.696 235.75 208.355 236.818C209.037 237.886 209.957 238.795 211.116 239.545C212.276 240.273 213.56 240.886 214.969 241.386C216.378 241.886 217.798 242.307 219.23 242.648L225.776 244.284C228.412 244.898 230.946 245.727 233.378 246.773C235.832 247.818 238.026 249.136 239.957 250.727C241.912 252.318 243.457 254.239 244.594 256.489C245.73 258.739 246.298 261.375 246.298 264.398C246.298 268.489 245.253 272.091 243.162 275.205C241.071 278.295 238.048 280.716 234.094 282.466C230.162 284.193 225.401 285.057 219.81 285.057C214.378 285.057 209.662 284.216 205.662 282.534C201.685 280.852 198.571 278.398 196.321 275.17C194.094 271.943 192.889 268.011 192.707 263.375H205.151C205.332 265.807 206.082 267.83 207.401 269.443C208.719 271.057 210.435 272.261 212.548 273.057C214.685 273.852 217.071 274.25 219.707 274.25C222.457 274.25 224.866 273.841 226.935 273.023C229.026 272.182 230.662 271.023 231.844 269.545C233.026 268.045 233.628 266.295 233.651 264.295C233.628 262.477 233.094 260.977 232.048 259.795C231.003 258.591 229.537 257.591 227.651 256.795C225.787 255.977 223.605 255.25 221.105 254.614L213.162 252.568C207.412 251.091 202.866 248.852 199.526 245.852C196.207 242.83 194.548 238.818 194.548 233.818C194.548 229.705 195.662 226.102 197.889 223.011C200.139 219.92 203.196 217.523 207.06 215.818C210.923 214.091 215.298 213.227 220.185 213.227C225.139 213.227 229.48 214.091 233.207 215.818C236.957 217.523 239.901 219.898 242.037 222.943C244.173 225.966 245.276 229.443 245.344 233.375H233.173ZM269.369 253.318V284H257.028V214.182H269.097V240.534H269.71C270.938 237.58 272.835 235.25 275.403 233.545C277.994 231.818 281.29 230.955 285.29 230.955C288.926 230.955 292.097 231.716 294.801 233.239C297.506 234.761 299.597 236.989 301.074 239.92C302.574 242.852 303.324 246.432 303.324 250.659V284H290.983V252.568C290.983 249.045 290.074 246.307 288.256 244.352C286.46 242.375 283.938 241.386 280.688 241.386C278.506 241.386 276.551 241.864 274.824 242.818C273.119 243.75 271.778 245.102 270.801 246.875C269.847 248.648 269.369 250.795 269.369 253.318Z" fill="#1E1E1E"/>
</svg>
